<svg width="164" height="57" viewBox="0 0 164 57" fill="none" xmlns="http://www.w3.org/2000/svg">
<path d="M0 53.4212C0 53.0791 0.0605217 52.7449 0.18157 52.4186C0.302618 52.087 0.478929 51.787 0.7105 51.5186C0.947333 51.2449 1.23417 51.0292 1.571 50.8713C1.90783 50.7081 2.28939 50.6265 2.71569 50.6265C3.22094 50.6265 3.65776 50.7423 4.02617 50.9739C4.39458 51.2002 4.66826 51.4923 4.8472 51.8502L4.15248 52.316C4.04722 52.0897 3.91301 51.9107 3.74986 51.7791C3.59197 51.6476 3.4183 51.5555 3.22883 51.5028C3.04463 51.4502 2.86305 51.4239 2.68411 51.4239C2.38939 51.4239 2.1315 51.4844 1.91046 51.6055C1.68941 51.7212 1.50258 51.8765 1.34995 52.0712C1.20259 52.266 1.08944 52.4844 1.01049 52.7265C0.936809 52.9686 0.899965 53.2107 0.899965 53.4528C0.899965 53.7212 0.9447 53.9817 1.03417 54.2343C1.12364 54.4817 1.24732 54.7027 1.40521 54.8974C1.56836 55.0869 1.76046 55.2369 1.98151 55.3474C2.20255 55.458 2.44465 55.5132 2.7078 55.5132C2.88674 55.5132 3.07357 55.4816 3.2683 55.4185C3.46303 55.3553 3.64197 55.258 3.80513 55.1264C3.97354 54.9895 4.10512 54.8106 4.19985 54.5896L4.93403 55.008C4.81825 55.2869 4.63667 55.5237 4.38931 55.7185C4.14722 55.9132 3.87355 56.0606 3.56829 56.1606C3.2683 56.2606 2.97094 56.3106 2.67622 56.3106C2.2815 56.3106 1.92098 56.229 1.59468 56.0658C1.26838 55.8974 0.986807 55.6764 0.749974 55.4027C0.51314 55.1238 0.328934 54.8132 0.19736 54.4711C0.0657853 54.1238 0 53.7738 0 53.4212Z" fill="white"/>
<path d="M8.99951 56.3027C8.55215 56.3027 8.17322 56.2263 7.8627 56.0737C7.55745 55.9211 7.31009 55.7132 7.12063 55.4501C6.93642 55.1869 6.79959 54.8869 6.71012 54.5501C6.62591 54.2133 6.58381 53.8633 6.58381 53.5001V50.6581H7.46798V53.5001C7.46798 53.758 7.4943 54.008 7.54693 54.2501C7.59956 54.4869 7.68376 54.7001 7.79955 54.8896C7.91534 55.079 8.07059 55.229 8.26532 55.3395C8.46531 55.4501 8.71004 55.5053 8.99951 55.5053C9.29423 55.5053 9.53896 55.4501 9.73369 55.3395C9.93368 55.2238 10.0889 55.0711 10.1995 54.8817C10.3152 54.6869 10.3995 54.4711 10.4521 54.2343C10.5047 53.9975 10.531 53.7528 10.531 53.5001V50.6581H11.4231V53.5001C11.4231 53.8843 11.3757 54.2475 11.281 54.5896C11.1915 54.9264 11.0494 55.2238 10.8547 55.4816C10.6652 55.7343 10.4179 55.9343 10.1126 56.0816C9.80737 56.229 9.43633 56.3027 8.99951 56.3027Z" fill="white"/>
<path d="M13.5099 56.2632V50.6581H14.3941V56.2632H13.5099Z" fill="white"/>
<path d="M16.5717 56.2632V50.6581H18.5611C19.1664 50.6581 19.6716 50.7844 20.0769 51.0371C20.4821 51.2844 20.7847 51.6212 20.9847 52.0475C21.19 52.4686 21.2926 52.937 21.2926 53.4528C21.2926 54.0212 21.1795 54.5159 20.9532 54.9369C20.7321 55.358 20.4163 55.6843 20.0058 55.9158C19.5953 56.1474 19.1138 56.2632 18.5611 56.2632H16.5717ZM20.3927 53.4528C20.3927 53.058 20.319 52.7107 20.1716 52.4107C20.0295 52.1054 19.8216 51.8686 19.5479 51.7002C19.2795 51.5265 18.9506 51.4397 18.5611 51.4397H17.4559V55.4816H18.5611C18.9559 55.4816 19.2874 55.3922 19.5558 55.2132C19.8295 55.0343 20.0374 54.7922 20.1795 54.4869C20.3216 54.1817 20.3927 53.837 20.3927 53.4528Z" fill="white"/>
<path d="M24.5439 50.6581H25.3807L27.5595 56.2632H26.628L26.0359 54.7396H23.8728L23.2886 56.2632H22.3492L24.5439 50.6581ZM25.8622 54.0843L24.9623 51.6291L24.0307 54.0843H25.8622Z" fill="white"/>
<path d="M29.1636 56.2632V50.6581H31.153C31.7582 50.6581 32.2635 50.7844 32.6687 51.0371C33.074 51.2844 33.3766 51.6212 33.5766 52.0475C33.7819 52.4686 33.8845 52.937 33.8845 53.4528C33.8845 54.0212 33.7713 54.5159 33.545 54.9369C33.324 55.358 33.0082 55.6843 32.5977 55.9158C32.1872 56.1474 31.7056 56.2632 31.153 56.2632H29.1636ZM32.9845 53.4528C32.9845 53.058 32.9108 52.7107 32.7635 52.4107C32.6214 52.1054 32.4135 51.8686 32.1398 51.7002C31.8714 51.5265 31.5425 51.4397 31.153 51.4397H30.0478V55.4816H31.153C31.5477 55.4816 31.8793 55.3922 32.1477 55.2132C32.4214 55.0343 32.6293 54.7922 32.7714 54.4869C32.9135 54.1817 32.9845 53.837 32.9845 53.4528Z" fill="white"/>
<path d="M38.0544 56.3027C37.6491 56.3027 37.2833 56.2237 36.957 56.0658C36.6307 55.9079 36.3492 55.6948 36.1123 55.4264C35.8755 55.1527 35.6913 54.8474 35.5597 54.5106C35.4334 54.1685 35.3703 53.8185 35.3703 53.4607C35.3703 53.087 35.4387 52.7317 35.5755 52.3949C35.7124 52.0528 35.9018 51.7502 36.1439 51.487C36.386 51.2186 36.6702 51.0081 36.9965 50.8555C37.3281 50.6976 37.686 50.6187 38.0702 50.6187C38.4701 50.6187 38.8333 50.7002 39.1596 50.8634C39.4912 51.0265 39.7727 51.2449 40.0043 51.5186C40.2411 51.7923 40.4227 52.0975 40.549 52.4344C40.6806 52.7712 40.7464 53.1159 40.7464 53.4686C40.7464 53.8422 40.678 54.2001 40.5411 54.5422C40.4096 54.879 40.2227 55.1816 39.9806 55.4501C39.7385 55.7132 39.4517 55.9211 39.1201 56.0737C38.7938 56.2263 38.4386 56.3027 38.0544 56.3027ZM36.2702 53.4607C36.2702 53.7238 36.3123 53.9791 36.3965 54.2264C36.4808 54.4738 36.5992 54.6948 36.7518 54.8896C36.9097 55.079 37.0991 55.229 37.3202 55.3395C37.5412 55.4501 37.7886 55.5053 38.0623 55.5053C38.3465 55.5053 38.5991 55.4474 38.8201 55.3316C39.0412 55.2159 39.2254 55.0606 39.3728 54.8659C39.5254 54.6659 39.6412 54.4448 39.7201 54.2027C39.799 53.9554 39.8385 53.708 39.8385 53.4607C39.8385 53.1975 39.7964 52.9449 39.7122 52.7028C39.6333 52.4554 39.5149 52.237 39.357 52.0475C39.1991 51.8528 39.0096 51.7002 38.7886 51.5897C38.5728 51.4791 38.3307 51.4239 38.0623 51.4239C37.7781 51.4239 37.5254 51.4818 37.3044 51.5976C37.0834 51.7133 36.8965 51.8686 36.7439 52.0633C36.5913 52.2581 36.4729 52.4765 36.3886 52.7186C36.3097 52.9607 36.2702 53.208 36.2702 53.4607Z" fill="white"/>
<path d="M45.4341 56.2632V50.6581H46.3182V56.2632H45.4341Z" fill="white"/>
<path d="M49.3801 52.3002V56.2632H48.4959V50.6581H49.2222L52.3957 54.708V50.666H53.2878V56.2632H52.5142L49.3801 52.3002Z" fill="white"/>
<path d="M59.5717 51.4397H57.7086V56.2632H56.8165V51.4397H54.9455V50.6581H59.5717V51.4397Z" fill="white"/>
<path d="M65.0788 55.4816V56.2632H61.2342V50.6581H65.0078V51.4397H62.1184V53.0344H64.621V53.7685H62.1184V55.4816H65.0788Z" fill="white"/>
<path d="M66.9018 56.2632V50.6581H67.786V55.4816H70.7938V56.2632H66.9018Z" fill="white"/>
<path d="M72.423 56.2632V50.6581H73.3072V56.2632H72.423Z" fill="white"/>
<path d="M77.7742 56.3027C77.4058 56.3027 77.0611 56.2263 76.74 56.0737C76.419 55.9211 76.1374 55.7106 75.8953 55.4422C75.6585 55.1738 75.4717 54.8685 75.3348 54.5264C75.2032 54.1843 75.1375 53.8212 75.1375 53.437C75.1375 53.0528 75.2032 52.6923 75.3348 52.3554C75.4717 52.0186 75.6585 51.7186 75.8953 51.4555C76.1374 51.1923 76.419 50.9871 76.74 50.8397C77.0663 50.6923 77.4216 50.6187 77.8058 50.6187C78.3373 50.6187 78.7847 50.7318 79.1478 50.9581C79.5163 51.1792 79.7925 51.4739 79.9768 51.8423L79.2978 52.3317C79.1505 52.0265 78.94 51.7976 78.6663 51.6449C78.3979 51.4923 78.1031 51.416 77.7821 51.416C77.5189 51.416 77.2795 51.4713 77.0637 51.5818C76.8479 51.6923 76.6611 51.8449 76.5032 52.0397C76.3506 52.2291 76.2348 52.4475 76.1558 52.6949C76.0769 52.937 76.0374 53.1922 76.0374 53.4607C76.0374 53.7449 76.0822 54.0106 76.1716 54.258C76.2611 54.5054 76.3874 54.7238 76.5506 54.9132C76.7137 55.0974 76.9058 55.2422 77.1269 55.3474C77.3479 55.4527 77.5874 55.5053 77.8453 55.5053C78.1505 55.5053 78.44 55.429 78.7136 55.2764C78.9926 55.1185 79.2531 54.8843 79.4952 54.5738V55.4737C79.0057 56.0264 78.4321 56.3027 77.7742 56.3027ZM79.4084 54.0843H78.2321V53.4291H80.1504V56.2632H79.4084V54.0843Z" fill="white"/>
<path d="M85.9145 55.4816V56.2632H82.0698V50.6581H85.8434V51.4397H82.954V53.0344H85.4566V53.7685H82.954V55.4816H85.9145Z" fill="white"/>
<path d="M88.6216 52.3002V56.2632H87.7375V50.6581H88.4638L91.6373 54.708V50.666H92.5294V56.2632H91.7557L88.6216 52.3002Z" fill="white"/>
<path d="M98.8133 51.4397H96.9502V56.2632H96.0581V51.4397H94.1871V50.6581H98.8133V51.4397Z" fill="white"/>
<path d="M104.32 55.4816V56.2632H100.476V50.6581H104.249V51.4397H101.36V53.0344H103.863V53.7685H101.36V55.4816H104.32Z" fill="white"/>
<path d="M108.65 53.4212C108.65 53.0791 108.71 52.7449 108.831 52.4186C108.952 52.087 109.128 51.787 109.36 51.5186C109.597 51.2449 109.884 51.0292 110.221 50.8713C110.557 50.7081 110.939 50.6265 111.365 50.6265C111.87 50.6265 112.307 50.7423 112.676 50.9739C113.044 51.2002 113.318 51.4923 113.497 51.8502L112.802 52.316C112.697 52.0897 112.563 51.9107 112.399 51.7791C112.242 51.6476 112.068 51.5555 111.878 51.5028C111.694 51.4502 111.513 51.4239 111.334 51.4239C111.039 51.4239 110.781 51.4844 110.56 51.6055C110.339 51.7212 110.152 51.8765 110 52.0712C109.852 52.266 109.739 52.4844 109.66 52.7265C109.586 52.9686 109.55 53.2107 109.55 53.4528C109.55 53.7212 109.594 53.9817 109.684 54.2343C109.773 54.4817 109.897 54.7027 110.055 54.8974C110.218 55.0869 110.41 55.2369 110.631 55.3474C110.852 55.458 111.094 55.5132 111.357 55.5132C111.536 55.5132 111.723 55.4816 111.918 55.4185C112.113 55.3553 112.292 55.258 112.455 55.1264C112.623 54.9895 112.755 54.8106 112.849 54.5896L113.584 55.008C113.468 55.2869 113.286 55.5237 113.039 55.7185C112.797 55.9132 112.523 56.0606 112.218 56.1606C111.918 56.2606 111.621 56.3106 111.326 56.3106C110.931 56.3106 110.571 56.229 110.244 56.0658C109.918 55.8974 109.636 55.6764 109.4 55.4027C109.163 55.1238 108.978 54.8132 108.847 54.4711C108.715 54.1238 108.65 53.7738 108.65 53.4212Z" fill="white"/>
<path d="M117.572 56.3027C117.167 56.3027 116.801 56.2237 116.474 56.0658C116.148 55.9079 115.867 55.6948 115.63 55.4264C115.393 55.1527 115.209 54.8474 115.077 54.5106C114.951 54.1685 114.888 53.8185 114.888 53.4607C114.888 53.087 114.956 52.7317 115.093 52.3949C115.23 52.0528 115.419 51.7502 115.661 51.487C115.903 51.2186 116.188 51.0081 116.514 50.8555C116.845 50.6976 117.203 50.6187 117.588 50.6187C117.988 50.6187 118.351 50.7002 118.677 50.8634C119.009 51.0265 119.29 51.2449 119.522 51.5186C119.759 51.7923 119.94 52.0975 120.066 52.4344C120.198 52.7712 120.264 53.1159 120.264 53.4686C120.264 53.8422 120.195 54.2001 120.059 54.5422C119.927 54.879 119.74 55.1816 119.498 55.4501C119.256 55.7132 118.969 55.9211 118.638 56.0737C118.311 56.2263 117.956 56.3027 117.572 56.3027ZM115.788 53.4607C115.788 53.7238 115.83 53.9791 115.914 54.2264C115.998 54.4738 116.117 54.6948 116.269 54.8896C116.427 55.079 116.617 55.229 116.838 55.3395C117.059 55.4501 117.306 55.5053 117.58 55.5053C117.864 55.5053 118.116 55.4474 118.338 55.3316C118.559 55.2159 118.743 55.0606 118.89 54.8659C119.043 54.6659 119.159 54.4448 119.238 54.2027C119.316 53.9554 119.356 53.708 119.356 53.4607C119.356 53.1975 119.314 52.9449 119.23 52.7028C119.151 52.4554 119.032 52.237 118.874 52.0475C118.716 51.8528 118.527 51.7002 118.306 51.5897C118.09 51.4791 117.848 51.4239 117.58 51.4239C117.295 51.4239 117.043 51.4818 116.822 51.5976C116.601 51.7133 116.414 51.8686 116.261 52.0633C116.109 52.2581 115.99 52.4765 115.906 52.7186C115.827 52.9607 115.788 53.208 115.788 53.4607Z" fill="white"/>
<path d="M122.974 52.3002V56.2632H122.09V50.6581H122.816L125.99 54.708V50.666H126.882V56.2632H126.108L122.974 52.3002Z" fill="white"/>
<path d="M132.897 55.4816V56.2632H129.053V50.6581H132.826V51.4397H129.937V53.0344H132.44V53.7685H129.937V55.4816H132.897Z" fill="white"/>
<path d="M134.265 53.4212C134.265 53.0791 134.326 52.7449 134.447 52.4186C134.568 52.087 134.744 51.787 134.976 51.5186C135.212 51.2449 135.499 51.0292 135.836 50.8713C136.173 50.7081 136.554 50.6265 136.981 50.6265C137.486 50.6265 137.923 50.7423 138.291 50.9739C138.66 51.2002 138.933 51.4923 139.112 51.8502L138.418 52.316C138.312 52.0897 138.178 51.9107 138.015 51.7791C137.857 51.6476 137.683 51.5555 137.494 51.5028C137.31 51.4502 137.128 51.4239 136.949 51.4239C136.654 51.4239 136.397 51.4844 136.175 51.6055C135.954 51.7212 135.768 51.8765 135.615 52.0712C135.468 52.266 135.354 52.4844 135.276 52.7265C135.202 52.9686 135.165 53.2107 135.165 53.4528C135.165 53.7212 135.21 53.9817 135.299 54.2343C135.389 54.4817 135.512 54.7027 135.67 54.8974C135.833 55.0869 136.025 55.2369 136.247 55.3474C136.468 55.458 136.71 55.5132 136.973 55.5132C137.152 55.5132 137.339 55.4816 137.533 55.4185C137.728 55.3553 137.907 55.258 138.07 55.1264C138.239 54.9895 138.37 54.8106 138.465 54.5896L139.199 55.008C139.083 55.2869 138.902 55.5237 138.654 55.7185C138.412 55.9132 138.139 56.0606 137.833 56.1606C137.533 56.2606 137.236 56.3106 136.941 56.3106C136.547 56.3106 136.186 56.229 135.86 56.0658C135.533 55.8974 135.252 55.6764 135.015 55.4027C134.778 55.1238 134.594 54.8132 134.462 54.4711C134.331 54.1238 134.265 53.7738 134.265 53.4212Z" fill="white"/>
<path d="M145.041 51.4397H143.178V56.2632H142.286V51.4397H140.415V50.6581H145.041V51.4397Z" fill="white"/>
<path d="M147.797 50.6581H148.634L150.813 56.2632H149.882L149.289 54.7396H147.126L146.542 56.2632H145.603L147.797 50.6581ZM149.116 54.0843L148.216 51.6291L147.284 54.0843H149.116Z" fill="white"/>
<path d="M152.417 56.2632V50.6581H154.407C155.012 50.6581 155.517 50.7844 155.922 51.0371C156.328 51.2844 156.63 51.6212 156.83 52.0475C157.035 52.4686 157.138 52.937 157.138 53.4528C157.138 54.0212 157.025 54.5159 156.799 54.9369C156.578 55.358 156.262 55.6843 155.851 55.9158C155.441 56.1474 154.959 56.2632 154.407 56.2632H152.417ZM156.238 53.4528C156.238 53.058 156.164 52.7107 156.017 52.4107C155.875 52.1054 155.667 51.8686 155.393 51.7002C155.125 51.5265 154.796 51.4397 154.407 51.4397H153.301V55.4816H154.407C154.801 55.4816 155.133 55.3922 155.401 55.2132C155.675 55.0343 155.883 54.7922 156.025 54.4869C156.167 54.1817 156.238 53.837 156.238 53.4528Z" fill="white"/>
<path d="M161.308 56.3027C160.903 56.3027 160.537 56.2237 160.211 56.0658C159.884 55.9079 159.603 55.6948 159.366 55.4264C159.129 55.1527 158.945 54.8474 158.813 54.5106C158.687 54.1685 158.624 53.8185 158.624 53.4607C158.624 53.087 158.692 52.7317 158.829 52.3949C158.966 52.0528 159.155 51.7502 159.398 51.487C159.64 51.2186 159.924 51.0081 160.25 50.8555C160.582 50.6976 160.94 50.6187 161.324 50.6187C161.724 50.6187 162.087 50.7002 162.413 50.8634C162.745 51.0265 163.026 51.2449 163.258 51.5186C163.495 51.7923 163.676 52.0975 163.803 52.4344C163.934 52.7712 164 53.1159 164 53.4686C164 53.8422 163.932 54.2001 163.795 54.5422C163.663 54.879 163.476 55.1816 163.234 55.4501C162.992 55.7132 162.705 55.9211 162.374 56.0737C162.047 56.2263 161.692 56.3027 161.308 56.3027ZM159.524 53.4607C159.524 53.7238 159.566 53.9791 159.65 54.2264C159.734 54.4738 159.853 54.6948 160.005 54.8896C160.163 55.079 160.353 55.229 160.574 55.3395C160.795 55.4501 161.042 55.5053 161.316 55.5053C161.6 55.5053 161.853 55.4474 162.074 55.3316C162.295 55.2159 162.479 55.0606 162.626 54.8659C162.779 54.6659 162.895 54.4448 162.974 54.2027C163.053 53.9554 163.092 53.708 163.092 53.4607C163.092 53.1975 163.05 52.9449 162.966 52.7028C162.887 52.4554 162.768 52.237 162.611 52.0475C162.453 51.8528 162.263 51.7002 162.042 51.5897C161.826 51.4791 161.584 51.4239 161.316 51.4239C161.032 51.4239 160.779 51.4818 160.558 51.5976C160.337 51.7133 160.15 51.8686 159.997 52.0633C159.845 52.2581 159.726 52.4765 159.642 52.7186C159.563 52.9607 159.524 53.208 159.524 53.4607Z" fill="white"/>
<path d="M22.9615 17.3391C24.4384 16.5325 26.0949 16.1251 27.9472 16.1251C29.5465 16.1251 31.0072 16.4591 32.3209 17.1273C33.6347 17.7954 34.7362 18.7976 35.6257 20.1339L39.518 17.6569C38.4164 15.7258 36.8578 14.251 34.8505 13.2325C32.8431 12.214 30.5584 11.7007 28.0043 11.7007C25.1238 11.7007 22.5616 12.3036 20.3013 13.5177C18.041 14.7318 16.2785 16.4184 14.9974 18.5776C13.7162 20.7369 13.0798 23.1894 13.0798 25.9272C13.0798 28.6649 13.7162 31.1175 14.9974 33.2767C16.2785 35.4359 18.041 37.1307 20.3013 38.3611C22.5535 39.5914 25.1238 40.2025 28.0043 40.2025C30.5665 40.2025 32.8431 39.6811 34.8505 38.6462C36.8578 37.6114 38.4164 36.1285 39.518 34.1893L35.6257 31.7693C34.7362 33.1056 33.6347 34.1078 32.3209 34.7759C31.0072 35.4441 29.5465 35.7781 27.9472 35.7781C26.103 35.7781 24.4384 35.3707 22.9615 34.5641C21.4845 33.7574 20.334 32.6086 19.4935 31.1093C18.6612 29.6182 18.245 27.8827 18.245 25.919C18.245 23.9879 18.6612 22.2768 19.4935 20.7776C20.334 19.2947 21.4927 18.1458 22.9615 17.3391Z" fill="white"/>
<path d="M50.4453 11.9609H45.329V39.8924H50.4453V11.9609Z" fill="white"/>
<path d="M47.8825 0C46.887 0 46.0628 0.325922 45.4019 0.977764C44.7409 1.62961 44.4145 2.41182 44.4145 3.3244C44.4145 4.23698 44.7409 5.01104 45.4019 5.64659C46.0547 6.28214 46.887 6.59176 47.8825 6.59176C48.878 6.59176 49.7022 6.26584 50.3631 5.614C51.0159 4.96216 51.3505 4.16365 51.3505 3.21847C51.3505 2.30589 51.0241 1.53998 50.3631 0.928877C49.7022 0.309626 48.878 0 47.8825 0Z" fill="white"/>
<path d="M74.4816 11.7007C72.2458 11.7007 70.2466 12.0918 68.484 12.8577C66.7215 13.6318 65.3261 14.7399 64.298 16.174V11.9614H59.3939V39.8929H64.5101V25.5035C64.5101 22.5213 65.3098 20.2235 66.9092 18.6265C68.5085 17.0295 70.6954 16.231 73.4616 16.231C75.9096 16.231 77.7945 16.9154 79.1083 18.2843C80.422 19.6532 81.083 21.6902 81.083 24.3953V39.8929H86.1993V23.8168C86.1993 19.8487 85.1385 16.8339 83.0251 14.7806C80.9198 12.7273 78.072 11.7007 74.4816 11.7007Z" fill="white"/>
<path d="M111.691 34.7841C110.377 35.4523 108.917 35.7864 107.317 35.7864C105.473 35.7864 103.808 35.379 102.331 34.5723C100.855 33.7656 99.7039 32.6168 98.8635 31.1175C98.0312 29.6264 97.615 27.8909 97.615 25.9272C97.615 23.9961 98.0312 22.285 98.8635 20.7858C99.6958 19.2947 100.855 18.1458 102.331 17.331C103.808 16.5244 105.465 16.117 107.317 16.117C108.917 16.117 110.377 16.451 111.691 17.1192C113.005 17.7873 114.106 18.7895 114.996 20.1258L115.004 20.1177C115.004 20.1258 115.004 20.1421 115.004 20.1503H118.839V0.138672H116.897H113.723H59.3939V5.24749H113.723V12.9881C111.838 12.1244 109.724 11.6926 107.374 11.6926C104.494 11.6926 101.932 12.2956 99.6713 13.5096C97.411 14.7237 95.6485 16.4103 94.3673 18.5695C93.0862 20.7288 92.4498 23.1813 92.4498 25.9191C92.4498 28.6568 93.0862 31.1094 94.3673 33.2686C95.6485 35.4278 97.411 37.1226 99.6713 38.353C101.923 39.5833 104.494 40.1944 107.374 40.1944C109.937 40.1944 112.213 39.673 114.22 38.6382C116.228 37.6034 117.786 36.1204 118.888 34.1812L114.996 31.7612C114.106 33.1138 113.005 34.116 111.691 34.7841Z" fill="white"/>
<path d="M149.139 18.5776C147.874 16.4184 146.136 14.7318 143.916 13.5177C141.697 12.3036 139.184 11.7007 136.377 11.7007C133.57 11.7007 131.048 12.3036 128.804 13.5177C126.56 14.7318 124.814 16.4184 123.557 18.5776C122.293 20.7369 121.664 23.1894 121.664 25.9272C121.664 28.6649 122.293 31.1175 123.557 33.2767C124.822 35.4359 126.568 37.1307 128.804 38.3611C131.04 39.5914 133.57 40.2025 136.377 40.2025C139.184 40.2025 141.697 39.5914 143.916 38.3611C146.136 37.1307 147.882 35.4359 149.139 33.2767C150.404 31.1175 151.032 28.6649 151.032 25.9272C151.032 23.1894 150.395 20.7369 149.139 18.5776ZM144.634 31.0686C143.818 32.5597 142.692 33.7248 141.248 34.5478C139.812 35.3707 138.18 35.7863 136.368 35.7863C134.557 35.7863 132.933 35.3707 131.489 34.5478C130.053 33.7248 128.91 32.5597 128.078 31.0686C127.246 29.5775 126.821 27.8664 126.821 25.9272C126.821 23.9961 127.237 22.285 128.078 20.7857C128.91 19.2947 130.053 18.1458 131.489 17.331C132.925 16.5243 134.557 16.1169 136.368 16.1169C138.18 16.1169 139.804 16.5243 141.248 17.331C142.684 18.1376 143.818 19.2865 144.634 20.7857C145.45 22.2768 145.858 23.9961 145.858 25.9272C145.858 27.8582 145.45 29.5693 144.634 31.0686Z" fill="white"/>
</svg>
