<svg width="108" height="32" viewBox="0 0 108 32" fill="none" xmlns="http://www.w3.org/2000/svg">
<path d="M7.73619 13.5745C8.89247 12.9429 10.1893 12.624 11.6394 12.624C12.8915 12.624 14.035 12.8855 15.0635 13.4086C16.092 13.9317 16.9545 14.7163 17.6508 15.7624L20.698 13.8232C19.8356 12.3114 18.6154 11.1568 17.0439 10.3595C15.4724 9.5621 13.6837 9.16023 11.6841 9.16023C9.42908 9.16023 7.42317 9.63227 5.65362 10.5827C3.88407 11.5332 2.5042 12.8536 1.50124 14.5441C0.498285 16.2345 0 18.1546 0 20.2979C0 22.4412 0.498285 24.3613 1.50124 26.0517C2.5042 27.7421 3.88407 29.0689 5.65362 30.0322C7.41678 30.9954 9.42908 31.4738 11.6841 31.4738C13.6901 31.4738 15.4724 31.0655 17.0439 30.2554C18.6154 29.4453 19.8356 28.2843 20.698 26.7661L17.6508 24.8716C16.9545 25.9177 16.092 26.7023 15.0635 27.2254C14.035 27.7485 12.8915 28.01 11.6394 28.01C10.1957 28.01 8.89247 27.6911 7.73619 27.0596C6.57992 26.4281 5.67917 25.5286 5.02118 24.3549C4.36958 23.1875 4.04377 21.8288 4.04377 20.2915C4.04377 18.7797 4.36958 17.4401 5.02118 16.2664C5.67917 15.1054 6.5863 14.206 7.73619 13.5745Z" fill="white"/>
<path d="M29.2519 9.36429H25.2464V31.2313H29.2519V9.36429Z" fill="white"/>
<path d="M27.2459 0C26.4665 0 25.8213 0.255158 25.3038 0.765474C24.7864 1.27579 24.5309 1.88817 24.5309 2.60261C24.5309 3.31705 24.7864 3.92306 25.3038 4.42061C25.8149 4.91817 26.4665 5.16057 27.2459 5.16057C28.0253 5.16057 28.6705 4.90541 29.1879 4.3951C29.699 3.88478 29.9609 3.25964 29.9609 2.51969C29.9609 1.80524 29.7054 1.20562 29.1879 0.727201C28.6705 0.242401 28.0253 0 27.2459 0Z" fill="white"/>
<path d="M48.0717 9.16023C46.3214 9.16023 44.7562 9.46642 43.3764 10.066C41.9965 10.672 40.9041 11.5396 40.0992 12.6623V9.36436H36.2598V31.2314H40.2653V19.9662C40.2653 17.6315 40.8913 15.8326 42.1434 14.5823C43.3955 13.3321 45.1076 12.7069 47.2732 12.7069C49.1897 12.7069 50.6654 13.2428 51.6939 14.3144C52.7224 15.3861 53.2398 16.9808 53.2398 19.0986V31.2314H57.2453V18.6457C57.2453 15.5392 56.4148 13.179 54.7603 11.5715C53.1121 9.96398 50.8826 9.16023 48.0717 9.16023Z" fill="white"/>
<path d="M77.2022 27.2317C76.1737 27.7548 75.0302 28.0163 73.7781 28.0163C72.3344 28.0163 71.0312 27.6974 69.8749 27.0658C68.7186 26.4343 67.8179 25.5349 67.1599 24.3612C66.5083 23.1938 66.1825 21.8351 66.1825 20.2978C66.1825 18.786 66.5083 17.4464 67.1599 16.2727C67.8115 15.1053 68.7186 14.2059 69.8749 13.568C71.0312 12.9365 72.328 12.6175 73.7781 12.6175C75.0302 12.6175 76.1737 12.8791 77.2022 13.4021C78.2307 13.9252 79.0932 14.7098 79.7895 15.756L79.7959 15.7496C79.7959 15.756 79.7959 15.7687 79.7959 15.7751H82.7983V0.108387H81.2779H78.7929H36.2598V4.10799H78.7929V10.168C77.3172 9.49183 75.6626 9.15374 73.8228 9.15374C71.5678 9.15374 69.5619 9.62578 67.7923 10.5762C66.0228 11.5267 64.6429 12.8472 63.6399 14.5376C62.637 16.228 62.1387 18.1481 62.1387 20.2914C62.1387 22.4347 62.637 24.3548 63.6399 26.0452C64.6429 27.7356 66.0228 29.0625 67.7923 30.0257C69.5555 30.9889 71.5678 31.4673 73.8228 31.4673C75.8287 31.4673 77.6111 31.0591 79.1826 30.2489C80.7541 29.4388 81.9743 28.2778 82.8367 26.7597L79.7895 24.8651C79.0932 25.924 78.2307 26.7086 77.2022 27.2317Z" fill="white"/>
<path d="M106.518 14.5441C105.528 12.8536 104.167 11.5332 102.429 10.5827C100.692 9.63227 98.7242 9.16023 96.5267 9.16023C94.3291 9.16023 92.3551 9.63227 90.5984 10.5827C88.8416 11.5332 87.4745 12.8536 86.4907 14.5441C85.5005 16.2345 85.0086 18.1546 85.0086 20.2979C85.0086 22.4412 85.5005 24.3613 86.4907 26.0517C87.4809 27.7421 88.848 29.0689 90.5984 30.0322C92.3487 30.9954 94.3291 31.4738 96.5267 31.4738C98.7242 31.4738 100.692 30.9954 102.429 30.0322C104.167 29.0689 105.534 27.7421 106.518 26.0517C107.508 24.3613 108 22.4412 108 20.2979C108 18.1546 107.502 16.2345 106.518 14.5441ZM102.992 24.323C102.353 25.4903 101.471 26.4025 100.34 27.0468C99.2161 27.6911 97.9385 28.0164 96.5203 28.0164C95.1021 28.0164 93.8308 27.6911 92.7001 27.0468C91.5758 26.4025 90.6814 25.4903 90.0298 24.323C89.3782 23.1556 89.046 21.8161 89.046 20.2979C89.046 18.7861 89.3718 17.4465 90.0298 16.2728C90.6814 15.1054 91.5758 14.206 92.7001 13.5681C93.8244 12.9366 95.1021 12.6176 96.5203 12.6176C97.9385 12.6176 99.2097 12.9366 100.34 13.5681C101.465 14.1996 102.353 15.099 102.992 16.2728C103.63 17.4401 103.95 18.7861 103.95 20.2979C103.95 21.8097 103.63 23.1493 102.992 24.323Z" fill="white"/>
</svg>
