<svg width="72" height="32" viewBox="0 0 72 32" fill="none" xmlns="http://www.w3.org/2000/svg">
<path d="M67.7677 31.3496C69.995 31.3496 71.8007 29.544 71.8007 27.3166C71.8007 25.0893 69.995 23.2837 67.7677 23.2837C65.5404 23.2837 63.7347 25.0893 63.7347 27.3166C63.7347 29.544 65.5404 31.3496 67.7677 31.3496Z" fill="white"/>
<path d="M60.6286 11.9839V31.3721H53.9049V29.2662C52.6953 30.9247 50.4535 32.0001 47.4959 32.0001C42.9692 32.0001 39.1152 28.774 39.1152 22.723V11.9855H45.8374V21.7371C45.8374 24.5158 47.5854 25.8164 49.7361 25.8164C52.2016 25.8164 53.9049 24.3816 53.9049 21.2002V11.9839H60.6286Z" fill="white"/>
<path d="M60.6286 0H39.1152V4.64173H60.6286V0Z" fill="white"/>
<path d="M28.424 0.0400391V8.34243V9.4018L7.17112 15.0965V12.0526V8.34243V0.0400391H0V31.4137H7.17112V23.1129V22.2692L28.424 16.5745V18.9537V23.1129V31.4137H35.5951V0.0400391H28.424Z" fill="white"/>
</svg>
